<svg xmlns="http://www.w3.org/2000/svg" xmlns:xlink="http://www.w3.org/1999/xlink" width="272" height="197"><defs><path id="a" d="M312.62 1240.81c0-34.31 27.89-62.23 62.17-62.23s62.17 27.92 62.17 62.23c0 34.31-27.9 62.23-62.17 62.23-34.28 0-62.17-27.92-62.17-62.23zm21.52 0a40.71 40.71 0 0 0 40.65 40.69 40.71 40.71 0 0 0 40.65-40.69 40.71 40.71 0 0 0-40.65-40.69 40.71 40.71 0 0 0-40.65 40.69zm145.58 122.7c0 5.95-4.82 10.77-10.76 10.77H280.62a10.77 10.77 0 0 1-10.76-10.77c0-31.43 58.52-52.46 76.45-58.16a10.74 10.74 0 0 1 10.2 2.04l18.28 15.48 18.27-15.48a10.73 10.73 0 0 1 10.2-2.04c17.94 5.7 76.46 26.73 76.46 58.16zm-28.94-10.77c-10.23-8.66-29.55-18.37-48.44-24.99l-20.6 17.45c-4.01 3.4-9.89 3.4-13.9 0l-20.6-17.45c-18.89 6.62-38.2 16.33-48.44 24.99zm89.7-6.99a8.07 8.07 0 0 1-8.07 8.08h-40.07a8.07 8.07 0 0 1 0-16.16h28.68c-5.72-7.69-17.46-15.27-24.05-18.55a8.09 8.09 0 0 1 7.18-14.47c3.71 1.84 36.33 18.66 36.33 41.1zm-51.6-79.64a24.76 24.76 0 0 0-34.36-22.8 8.07 8.07 0 1 1-6.28-14.88 40.6 40.6 0 0 1 15.9-3.22 40.93 40.93 0 0 1 40.87 40.9 40.93 40.93 0 0 1-40.86 40.91 40.57 40.57 0 0 1-28.9-11.98 8.07 8.07 0 1 1 11.42-11.42 24.53 24.53 0 0 0 17.48 7.25 24.77 24.77 0 0 0 24.72-24.76z"/></defs><use fill="#e0e0e0" xlink:href="#a" transform="translate(-269 -1178)"/></svg>